<svg width="50" height="50" viewBox="0 0 50 50" fill="none" xmlns="http://www.w3.org/2000/svg">
    <!-- Droplet background and outline -->
    <path d="M25 5 C 25 15, 40 20, 40 30 A 15 15 0 0 1 10 30 C 10 20, 25 15, 25 5 Z" fill="#F0FDF4" stroke="url(#droplet-grad)" stroke-width="2.5" stroke-linejoin="round"/>
    
    <!-- Top circle (Sun/Seed) -->
    <circle cx="25" cy="16.5" r="3.5" fill="#84CC16"/>
    
    <!-- Left Stem/Leaf (Dark Green/Navy) -->
    <path d="M23.5 21.5H16.5A 2.5 2.5 0 0 0 14 24.0V27.5A 9.5 9.5 0 0 0 23.5 37.0V21.5Z" fill="#064E3B"/>
    
    <!-- Right Stem/Leaf (Vibrant Green) -->
    <path d="M26.5 21.5H33.5A 2.5 2.5 0 0 1 36 24.0V27.5A 9.5 9.5 0 0 1 26.5 37.0V21.5Z" fill="#22C55E"/>
    
    <defs>
        <linearGradient id="droplet-grad" x1="25" y1="5" x2="25" y2="45" gradientUnits="userSpaceOnUse">
            <stop stop-color="#4ADE80"/>
            <stop offset="1" stop-color="#15803D"/>
        </linearGradient>
    </defs>
</svg>
