<svg width="50" height="50" viewBox="0 0 50 50" fill="none" xmlns="http://www.w3.org/2000/svg">
    <!-- Icon: Leaf Tower with Droplet -->
    <!-- Droplet Outline -->
    <path d="M25 7C25 7 37 19 37 27C37 33.6274 31.6274 39 25 39C18.3726 39 13 33.6274 13 27C13 19 25 7 25 7Z" fill="url(#droplet-grad)" opacity="0.15"/>
    <path d="M25 5C25 5 39 19 39 27C39 34.732 32.732 41 25 41C17.268 41 11 34.732 11 27C11 19 25 5 25 5Z" stroke="url(#droplet-grad)" stroke-width="2" stroke-linejoin="round"/>
    
    <!-- Leaf Tower -->
    <path d="M25 34C22 31 18 31 18 27C18 24 25 22 25 22C25 22 32 24 32 27C32 31 28 31 25 34Z" fill="#15803D"/>
    <path d="M25 26C22.5 23.5 19.5 23.5 19.5 20C19.5 17.5 25 16 25 16C25 16 30.5 17.5 30.5 20C30.5 23.5 27.5 23.5 25 26Z" fill="#22C55E"/>
    <path d="M25 17C23.5 15 21 15 21 12C21 10 25 9 25 9C25 9 29 10 29 12C29 15 26.5 15 25 17Z" fill="#84CC16"/>
    
    <path d="M25 9V35" stroke="#FFFFFF" stroke-width="1.5" stroke-linecap="round" opacity="0.7"/>
    
    <defs>
        <linearGradient id="droplet-grad" x1="25" y1="5" x2="25" y2="41" gradientUnits="userSpaceOnUse">
            <stop stop-color="#22C55E"/>
            <stop offset="1" stop-color="#15803D"/>
        </linearGradient>
    </defs>
</svg>
